<?xml version="1.0" encoding="UTF-8"?><svg id="uuid-0a9aec6a-eebf-4b75-bc8d-4932b275662e" xmlns="http://www.w3.org/2000/svg" viewBox="0 0 5000.04 5000.014"><path d="M.03,1230.133L2533.69,2.833c7.92-3.84,17.71-3.77,25.56.17l2440.79,1227.13-440.46,216.41-2030.17-980.17c-7.73-3.73-17.26-3.76-25.02-.06L447.89,1446.543.03,1230.133Z" fill="#231f20"/><path d="M1048.07,1522.553l1463.56,719.48c6.53,3.21,14.65,3.17,21.14-.12l1419.52-719.06c13.47-6.82,13.16-23.24-.57-29.71l-372.52-175.41c-6.44-3.03-14.34-2.95-20.69.22l-1047.97,522.92c-6.48,3.23-14.56,3.25-21.05.04l-1058.93-522.96c-6.41-3.17-14.37-3.2-20.81-.08l-361.55,174.94c-13.65,6.6-13.71,23.04-.12,29.72l-.01.02Z" fill="#231f20"/><path d="M.03,1230.133l1.84,2078.11c0,8.2,7.97,14.85,17.79,14.85h422.46c9.83,0,17.79-6.65,17.79-14.86v-1285.62c0-11.45,14.85-18.6,26.71-12.86l1330.19,643.6c5.49,2.66,8.87,7.56,8.87,12.86v1595.45c0,11.5-14.96,18.64-26.82,12.81l-1426.21-701.13c-2.85-1.4-6.12-2.11-9.43-2.05l-345.83,6.53c-9.67.18-17.39,6.78-17.39,14.86v262.03c0,5.34,3.43,10.27,8.98,12.91l2253.67,1072.82c11.86,5.65,26.6-1.51,26.6-12.91v-2463.72c0-26.4-16.86-50.8-44.23-64.01L457.61,1537.353c-5.45-2.63-8.84-7.48-8.89-12.74l-.83-78.07L.03,1230.133Z" fill="#231f20"/><path d="M4559.57,1446.543v70.5c0,14.23-9.15,27.36-23.96,34.38l-1799.04,853.71c-14.81,7.03-23.96,20.16-23.96,34.38v1195.64c0,14.21,9.12,27.32,23.9,34.36l230.56,109.77c14.37,6.84,31.97,6.92,46.42.22l1439.19-667.26c31.56-14.63,70.32,4.43,70.32,34.58v459.34c0,14.22-9.14,27.35-23.94,34.38l-1929.08,916.31c-14.8,7.03-23.94,20.16-23.94,34.38v369.18c0,30.35,39.23,49.38,70.8,34.35l2359.27-1123.51c14.77-7.04,23.9-20.15,23.9-34.35v-1221.03c0-13.03-7.68-25.22-20.54-32.6l-163.35-93.69c-14.88-8.53-34.27-9.26-50-1.87l-1511.7,709.83c-31.41,14.75-70.25-4.05-70.55-34.15l-4.68-483.4c-.14-14.48,9.2-27.86,24.36-34.89l1279.06-593.32c31.69-14.7,70.6,4.58,70.33,34.86l-1.97,224.76c-.09,10.71,13.67,17.53,24.87,12.32l399.83-185.72c15.02-6.98,24.33-20.21,24.33-34.56v-873.29" fill="#231f20"/></svg>